<svg width="757" height="366" viewBox="0 0 757 366" fill="none" xmlns="http://www.w3.org/2000/svg">
<path d="M128.077 285.3C117.877 291.1 103.977 294 86.3773 294C63.3773 294 45.6773 288.5 33.2773 277.5C20.8773 266.3 14.6773 249.6 14.6773 227.4V90H82.4773V135.9H116.077V185.4H82.4773V226.8C82.4773 231.8 83.7773 235.7 86.3773 238.5C88.9773 241.3 92.3773 242.7 96.5773 242.7C102.377 242.7 107.477 241.2 111.877 238.2L128.077 285.3Z" fill="#00C07B"/>
<path d="M325.063 126.9V291H260.563V277.5C250.763 288.5 235.763 294 215.563 294C201.163 294 187.863 290.6 175.663 283.8C163.663 276.8 154.063 266.8 146.863 253.8C139.863 240.8 136.363 225.8 136.363 208.8C136.363 191.8 139.863 176.9 146.863 164.1C154.063 151.1 163.663 141.2 175.663 134.4C187.863 127.4 201.163 123.9 215.563 123.9C233.763 123.9 247.663 128.6 257.263 138V126.9H325.063ZM231.763 241.2C239.563 241.2 245.963 238.4 250.963 232.8C255.963 227 258.463 219 258.463 208.8C258.463 198.6 255.963 190.7 250.963 185.1C245.963 179.5 239.563 176.7 231.763 176.7C223.963 176.7 217.563 179.5 212.563 185.1C207.563 190.7 205.062 198.6 205.062 208.8C205.062 219 207.563 227 212.563 232.8C217.563 238.4 223.963 241.2 231.763 241.2Z" fill="#E40060"/>
<path d="M538.421 126.9V258.3C538.421 289.5 529.721 312.9 512.321 328.5C495.121 344.3 470.521 352.2 438.521 352.2C422.121 352.2 406.821 350.4 392.621 346.8C378.421 343.4 366.321 338.4 356.321 331.8L379.121 285.6C385.521 290.4 393.621 294.3 403.421 297.3C413.221 300.3 422.621 301.8 431.621 301.8C445.221 301.8 455.121 298.9 461.321 293.1C467.521 287.3 470.621 278.8 470.621 267.6V264.6C460.421 276.2 445.321 282 425.321 282C411.321 282 398.221 278.8 386.021 272.4C374.021 265.8 364.421 256.5 357.221 244.5C350.021 232.3 346.421 218.4 346.421 202.8C346.421 187.2 350.021 173.4 357.221 161.4C364.421 149.4 374.021 140.2 386.021 133.8C398.221 127.2 411.321 123.9 425.321 123.9C447.721 123.9 463.921 131.1 473.921 145.5V126.9H538.421ZM443.321 229.2C451.321 229.2 457.921 226.8 463.121 222C468.521 217 471.221 210.6 471.221 202.8C471.221 195 468.521 188.7 463.121 183.9C457.921 179.1 451.321 176.7 443.321 176.7C435.121 176.7 428.321 179.1 422.921 183.9C417.721 188.7 415.121 195 415.121 202.8C415.121 210.6 417.821 217 423.221 222C428.621 226.8 435.321 229.2 443.321 229.2Z" fill="#E9C300"/>
<path d="M655.102 294C636.902 294 620.502 290.4 605.902 283.2C591.502 275.8 580.202 265.7 572.002 252.9C563.802 239.9 559.702 225.2 559.702 208.8C559.702 192.4 563.802 177.8 572.002 165C580.202 152 591.502 141.9 605.902 134.7C620.502 127.5 636.902 123.9 655.102 123.9C673.502 123.9 689.902 127.5 704.302 134.7C718.902 141.9 730.202 152 738.202 165C746.402 177.8 750.502 192.4 750.502 208.8C750.502 225.2 746.402 239.9 738.202 252.9C730.202 265.7 718.902 275.8 704.302 283.2C689.902 290.4 673.502 294 655.102 294ZM655.102 241.2C662.902 241.2 669.302 238.4 674.302 232.8C679.302 227 681.802 219 681.802 208.8C681.802 198.6 679.302 190.7 674.302 185.1C669.302 179.5 662.902 176.7 655.102 176.7C647.302 176.7 640.902 179.5 635.902 185.1C630.902 190.7 628.402 198.6 628.402 208.8C628.402 219 630.902 227 635.902 232.8C640.902 238.4 647.302 241.2 655.102 241.2Z" fill="#12C5EC"/>
</svg>
